# Blender v2.77 (sub 0) OBJ File: ''
# www.blender.org
o Sphere
v -0.835437 0.620557 0.246591
v -0.951045 -0.420945 0.203310
v -0.841848 0.203223 -0.568152
v -0.731507 -0.572125 -0.447057
v -0.385481 0.613872 -0.725506
v -0.232283 -0.405711 -0.955923
v 0.136224 -0.961806 -0.432541
v -0.103575 1.006638 0.250051
v 0.481305 -0.232985 -0.875272
v 0.428305 0.655844 -0.728814
v 0.089707 1.031499 -0.216573
v 0.948433 0.214278 -0.405922
v 0.849243 -0.602563 -0.077248
v 0.964098 -0.067904 0.414887
v 0.640459 0.647071 0.543531
v 0.466881 -0.594527 0.698739
v -0.048550 -1.017413 0.244076
v 0.161876 -0.000000 1.003344
v -0.153338 0.573192 0.843071
v -0.595008 -0.000000 0.823936
v -0.313786 -0.573025 0.821887
vn -0.9442 -0.1777 -0.2774
vn -0.4612 0.8755 -0.1444
vn -0.6921 0.6447 -0.3248
vn -0.3289 -0.7536 -0.5691
vn -0.4307 0.1369 -0.8920
vn -0.0152 0.2182 -0.9758
vn 0.2291 -0.5823 -0.7800
vn 0.5778 -0.6058 -0.5470
vn 0.9866 -0.1478 -0.0696
vn 0.6817 0.7235 -0.1087
vn 0.9125 0.3919 0.1173
vn 0.3619 0.9108 0.1984
vn 0.4774 -0.8442 0.2440
vn 0.7658 -0.5168 0.3827
vn 0.5813 -0.1146 0.8056
vn 0.2902 0.4024 0.8683
vn 0.0781 -0.7726 0.6301
vn -0.2291 -0.1159 0.9665
vn -0.5796 0.4233 0.6964
vn -0.5270 -0.7732 0.3528
vn -0.9924 0.1122 -0.0497
vn -0.4896 0.8404 -0.2324
vn -0.6638 -0.2067 -0.7188
vn -0.0433 0.7918 -0.6093
vn 0.0709 0.1663 -0.9835
vn 0.6169 0.1636 -0.7699
vn 0.8041 -0.3034 -0.5112
vn 0.6629 0.7413 -0.1054
vn 0.4320 -0.9008 0.0439
vn 0.5937 0.1257 0.7948
vn 0.1495 0.7922 0.5916
vn 0.1323 -0.3974 0.9081
vn -0.2282 0.1437 0.9629
vn -0.4009 0.7553 0.5184
vn -0.6951 -0.3434 0.6316
vn -0.8870 0.0796 0.4549
vn -0.4829 -0.8716 -0.0844
s off
f 2//1 3//1 4//1
f 8//2 11//2 1//2
f 1//3 5//3 3//3
f 7//4 4//4 6//4
f 3//5 5//5 6//5
f 5//6 10//6 6//6
f 6//7 9//7 7//7
f 7//8 9//8 13//8
f 12//9 14//9 13//9
f 10//10 15//10 12//10
f 12//11 15//11 14//11
f 15//12 11//12 8//12
f 17//13 13//13 16//13
f 13//14 14//14 16//14
f 14//15 18//15 16//15
f 18//16 15//16 19//16
f 16//17 21//17 17//17
f 18//18 20//18 21//18
f 20//19 19//19 1//19
f 17//20 21//20 2//20
f 2//21 1//21 3//21
f 1//22 11//22 5//22
f 4//23 3//23 6//23
f 5//24 11//24 10//24
f 6//25 10//25 9//25
f 9//26 10//26 12//26
f 9//27 12//27 13//27
f 15//28 10//28 11//28
f 7//29 13//29 17//29
f 18//30 14//30 15//30
f 19//31 15//31 8//31
f 16//32 18//32 21//32
f 20//33 18//33 19//33
f 1//34 19//34 8//34
f 21//35 20//35 2//35
f 2//36 20//36 1//36
f 7//37 17//37 2//37 4//37
