#  ==========================================================================
#  
#  Wavefront OBJ format exported by Red-i Productions' "Riptide Pro"
#     (a commercial plugin for Cinema 4D PC & Mac, R9.6 or later)
#  
#  Red-i Productions
#  http://skinprops.com
#  
#  ==========================================================================
v 0 0.262866 0.425325
v 0 -0.262866 0.425325
v 0.425325 0 0.262866
v 0.425325 0 -0.262866
v 0 0.262866 -0.425325
v 0 -0.262866 -0.425325
v -0.425325 0 -0.262866
v -0.425325 0 0.262866
v 0.262866 0.425325 -0
v -0.262866 0.425325 -0
v -0.262866 -0.425325 -0
v 0.262866 -0.425325 -0
# 12 vertices

vn -0.525731 0.850651 -0
vn 0.525731 0.850651 -7.5007e-09
vn 0 0.525731 0.850651
vn 0.525731 0.850651 -7.5007e-09
vn 0.850651 0 0.525731
vn 0 0.525731 0.850651
vn 0.525731 0.850651 -7.5007e-09
vn 0.850651 0 -0.525731
vn 0.850651 0 0.525731
vn 0.525731 0.850651 -7.5007e-09
vn 0 0.525731 -0.850651
vn 0.850651 0 -0.525731
vn 0.525731 0.850651 -7.5007e-09
vn -0.525731 0.850651 -0
vn 0 0.525731 -0.850651
vn 0 0.525731 -0.850651
vn -0.525731 0.850651 -0
vn -0.850651 0 -0.525731
vn -0.850651 0 -0.525731
vn -0.525731 0.850651 -0
vn -0.850651 0 0.525731
vn -0.525731 0.850651 -0
vn 0 0.525731 0.850651
vn -0.850651 0 0.525731
vn 0.525731 -0.850651 -0
vn -0.525731 -0.850651 -0
vn 7.5007e-09 -0.525731 0.850651
vn 0.850651 0 0.525731
vn 0.525731 -0.850651 -0
vn 7.5007e-09 -0.525731 0.850651
vn 0.850651 0 0.525731
vn 0.850651 0 -0.525731
vn 0.525731 -0.850651 -0
vn 0.850651 0 -0.525731
vn -7.5007e-09 -0.525731 -0.850651
vn 0.525731 -0.850651 -0
vn -7.5007e-09 -0.525731 -0.850651
vn -0.525731 -0.850651 -0
vn 0.525731 -0.850651 -0
vn -7.5007e-09 -0.525731 -0.850651
vn -0.850651 0 -0.525731
vn -0.525731 -0.850651 -0
vn -0.850651 0 -0.525731
vn -0.850651 0 0.525731
vn -0.525731 -0.850651 -0
vn -0.850651 0 0.525731
vn 7.5007e-09 -0.525731 0.850651
vn -0.525731 -0.850651 -0
vn 7.5007e-09 -0.525731 0.850651
vn -0.850651 0 0.525731
vn 0 0.525731 0.850651
vn 0.850651 0 0.525731
vn 7.5007e-09 -0.525731 0.850651
vn 0 0.525731 0.850651
vn 0 0.525731 -0.850651
vn -7.5007e-09 -0.525731 -0.850651
vn 0.850651 0 -0.525731
vn 0 0.525731 -0.850651
vn -0.850651 0 -0.525731
vn -7.5007e-09 -0.525731 -0.850651
# 60 vertex normals

f 1//3 9//2 10//1
f 1//6 3//5 9//4
f 3//9 4//8 9//7
f 4//12 5//11 9//10
f 5//15 10//14 9//13
f 7//18 10//17 5//16
f 8//21 10//20 7//19
f 8//24 1//23 10//22
f 2//27 11//26 12//25
f 2//30 12//29 3//28
f 12//33 4//32 3//31
f 12//36 6//35 4//34
f 12//39 11//38 6//37
f 11//42 7//41 6//40
f 11//45 8//44 7//43
f 11//48 2//47 8//46
f 1//51 8//50 2//49
f 1//54 2//53 3//52
f 4//57 6//56 5//55
f 6//60 7//59 5//58
# 20 facets

