#  ==========================================================================
#  
#  Wavefront OBJ format exported by Red-i Productions' "Riptide Pro"
#     (a commercial plugin for Cinema 4D PC & Mac, R9.6 or later)
#  
#  Red-i Productions
#  http://skinprops.com
#  
#  ==========================================================================
v -0.704368 -0.287557 0.406667
v 0.704368 -0.287557 0.406667
v 0 -0.287557 -0.813334
v 0 0.862671 -1.58603e-18
v 0.0346225 0.855496 0.0199893
v -0.653605 -0.301906 0.278157
v -0.567693 -0.301906 0.42696
v 0 0.824069 0.0622008
v 0.567693 -0.301906 0.42696
v 0.653605 -0.301906 0.278157
v 0.710051 -0.247473 0.409948
v 0.0859117 -0.301906 -0.705117
v -0.0859117 -0.301906 -0.705117
v -0.0538675 -0.245368 -0.787307
v -0.653605 -0.161613 0.377359
v -0.0538675 0.824069 -0.0311004
v -0.0859117 0.765426 0.0496011
v 0.0859117 0.765426 0.0496011
v -0.708762 -0.245368 0.347003
v 0.653605 -0.161613 0.377359
v 0.0538675 0.824069 -0.0311004
v 0.0538675 -0.245368 -0.787307
v 0 0.765426 -0.0992023
v 0 -0.247473 -0.819896
v 0 -0.161613 -0.754718
v 0.654894 -0.245368 0.440304
v 0.708762 -0.245368 0.347003
v 0 0.855496 -0.0399786
v 0.543292 -0.333333 0.371405
v -0.543292 -0.333333 0.371405
v 0.05 -0.333333 -0.656207
v 0.593292 -0.333333 0.284802
v -0.593292 -0.333333 0.284802
v -0.05 -0.333333 -0.656207
v -0.05 0.729789 0.0955342
v -0.593292 -0.157403 0.409204
v 0.593292 -0.157403 0.409204
v 0.05 0.729789 0.0955342
v -0.543292 -0.239052 0.438071
v 0.543292 -0.239052 0.438071
v 0.107735 0.729789 -0.00446582
v 0.651027 -0.157403 0.309204
v 0.057735 -0.157403 -0.718407
v 0.057735 0.729789 -0.0910684
v 0.651027 -0.239052 0.251469
v 0.107735 -0.239052 -0.68954
v -0.057735 0.729789 -0.0910684
v -0.057735 -0.157403 -0.718407
v -0.651027 -0.157403 0.309204
v -0.107735 0.729789 -0.00446582
v -0.107735 -0.239052 -0.68954
v -0.651027 -0.239052 0.251469
v -0.710051 -0.304012 0.369969
v -0.675428 -0.304012 0.429937
v -0.654894 -0.333333 0.378103
v 0.675428 -0.304012 0.429937
v 0.710051 -0.304012 0.369969
v 0.654894 -0.333333 0.378103
v 0.0346225 -0.304012 -0.799907
v -0.0346225 -0.304012 -0.799907
v 0 -0.333333 -0.756207
v -0.710051 -0.247473 0.409948
v -0.654894 -0.245368 0.440304
v -0.0346225 0.855496 0.0199893
# 64 vertices

vn 0.00519745 -0.966556 0.256402
vn -0.00622975 -0.978625 0.205558
vn 0.128726 -0.989262 -0.0692079
vn -0.262976 0.467129 0.844177
vn -0.181134 0.418023 0.890195
vn 0.00388948 0.146234 0.989242
vn 0.862566 0.467129 -0.194345
vn 0.856392 0.404746 -0.320581
vn 0.860608 0.0804471 -0.502874
vn -0.640416 0.449766 -0.622558
vn -0.641156 0.438811 -0.629575
vn -0.858654 0.146234 -0.491253
vn 0.00519745 -0.966556 0.256402
vn 0.0223636 -0.577206 0.816292
vn -0.0167876 -0.577269 0.816382
vn 0.262976 -0.951607 -0.159021
vn 0.695748 -0.577206 -0.427514
vn 0.715401 -0.577269 -0.393652
vn -0.72932 -0.521241 -0.443169
vn -0.854853 -0.518694 0.0135603
vn -0.229763 -0.964164 0.132654
vn -0.00622975 -0.978625 0.205558
vn 0.229763 -0.964164 0.132654
vn 0.262976 -0.951607 -0.159021
vn -0.00622975 -0.978625 0.205558
vn 0.262976 -0.951607 -0.159021
vn 0.128726 -0.989262 -0.0692079
vn 0.128726 -0.989262 -0.0692079
vn 1.01207e-17 -0.964164 -0.265307
vn -0.226741 -0.966296 -0.121904
vn -0.262976 0.467129 0.844177
vn -0.695748 0.595466 0.40169
vn -0.715401 0.563562 0.413037
vn 0.715401 0.563562 0.413037
vn 0.695748 0.595466 0.40169
vn 0.219452 0.447298 0.867044
vn 0.0223636 -0.577206 0.816292
vn -0.43917 -0.518694 0.733544
vn -0.229763 0.196321 0.95324
vn 0.00388948 0.146234 0.989242
vn -0.181134 0.418023 0.890195
vn 0.181134 0.418023 0.890195
vn 0.219452 0.447298 0.867044
vn 0.229763 0.196321 0.95324
vn -0.00779834 0.0794986 0.996804
vn 0.219452 0.447298 0.867044
vn -0.00779834 0.0794986 0.996804
vn 0.00388948 0.146234 0.989242
vn 0.862566 0.467129 -0.194345
vn 0.695748 0.595466 0.40169
vn 0.715401 0.563562 0.413037
vn 0.641156 0.438811 -0.629575
vn 1.01939e-17 0.558946 -0.829204
vn 1.22435e-16 0.590976 -0.806689
vn 0.715401 -0.577269 -0.393652
vn 0.695748 -0.577206 -0.427514
vn 0.860608 0.0804471 -0.502874
vn 0.641156 0.438811 -0.629575
vn 0.640416 0.449766 -0.622558
vn 0.856393 0.167331 -0.488459
vn 0.856392 0.404746 -0.320581
vn 0.641156 0.438811 -0.629575
vn 0.856393 0.167331 -0.488459
vn 0.862566 0.467129 -0.194345
vn 0.860608 0.0804471 -0.502874
vn 0.940412 0.196321 -0.27764
vn 1.22435e-16 0.590976 -0.806689
vn 1.01939e-17 0.558946 -0.829204
vn -0.641156 0.438811 -0.629575
vn -0.695748 0.595466 0.40169
vn -0.854853 0.160113 0.493549
vn -0.940412 0.196321 -0.27764
vn -0.72932 -0.521241 -0.443169
vn -0.681456 -0.630652 -0.371343
vn -0.858654 0.146234 -0.491253
vn -0.858654 0.146234 -0.491253
vn -0.641156 0.438811 -0.629575
vn -0.861498 0.418023 -0.288231
vn -0.860608 0.447298 -0.243471
vn -0.940412 0.196321 -0.27764
vn -0.859359 0.0794987 -0.505156
vn -0.860608 0.447298 -0.243471
vn -0.859359 0.0794987 -0.505156
vn -0.858654 0.146234 -0.491253
vn 0.0223636 -0.577206 0.816292
vn 0.00519745 -0.966556 0.256402
vn -0.229763 -0.964164 0.132654
vn 0.715401 -0.577269 -0.393652
vn 0.415683 -0.518694 -0.747104
vn 1.01207e-17 -0.964164 -0.265307
vn 1.01207e-17 -0.964164 -0.265307
vn -0.415683 -0.518694 -0.747104
vn -0.681456 -0.630652 -0.371343
vn -0.695748 0.595466 0.40169
vn -0.262976 0.467129 0.844177
vn -0.229763 0.196321 0.95324
vn 0.695748 0.595466 0.40169
vn 0.854853 0.160113 0.493549
vn 0.229763 0.196321 0.95324
vn 0.229763 0.196321 0.95324
vn 0.43917 -0.518694 0.733544
vn -0.0167876 -0.577269 0.816382
vn 0.695748 0.595466 0.40169
vn 0.862566 0.467129 -0.194345
vn 0.940412 0.196321 -0.27764
vn 1.01939e-17 0.558946 -0.829204
vn 0.641156 0.438811 -0.629575
vn 0.710649 0.571522 -0.410293
vn 0.940412 0.196321 -0.27764
vn 0.860608 0.0804471 -0.502874
vn 0.695748 -0.577206 -0.427514
vn 1.01939e-17 0.558946 -0.829204
vn -2.17135e-17 0.877275 -0.479989
vn -0.710649 0.571522 -0.410293
vn -0.710649 0.571522 -0.410293
vn -0.415683 0.877275 0.239994
vn -0.715401 0.563562 0.413037
vn -0.72932 -0.521241 -0.443169
vn -0.859359 0.0794987 -0.505156
vn -0.940412 0.196321 -0.27764
vn 0.128726 -0.989262 -0.0692079
vn -0.226741 -0.966296 -0.121904
vn -0.219452 -0.966556 -0.132702
vn -0.681456 -0.630652 -0.371343
vn -0.72932 -0.521241 -0.443169
vn -0.219452 -0.966556 -0.132702
vn -0.43917 -0.518694 0.733544
vn -0.229763 -0.964164 0.132654
vn -0.854853 -0.518694 0.0135603
vn 0.00519745 -0.966556 0.256402
vn -0.219452 -0.966556 -0.132702
vn -0.229763 -0.964164 0.132654
vn 0.229763 -0.964164 0.132654
vn -0.00622975 -0.978625 0.205558
vn -0.0167876 -0.577269 0.816382
vn 0.854853 -0.518694 0.0135603
vn 0.229763 -0.964164 0.132654
vn 0.43917 -0.518694 0.733544
vn -0.415683 0.877275 0.239994
vn -0.710649 0.571522 -0.410293
vn -2.17135e-17 0.877275 -0.479989
vn 0.695748 -0.577206 -0.427514
vn 0.262976 -0.951607 -0.159021
vn 0.229763 -0.964164 0.132654
vn -0.415683 -0.518694 -0.747104
vn 1.01207e-17 -0.964164 -0.265307
vn 0.415683 -0.518694 -0.747104
vn -0.262976 0.467129 0.844177
vn 0.00388948 0.146234 0.989242
vn -0.229763 0.196321 0.95324
vn -0.0167876 -0.577269 0.816382
vn 0.0223636 -0.577206 0.816292
vn 0.00388948 0.146234 0.989242
vn -0.854853 0.160113 0.493549
vn -0.229763 0.196321 0.95324
vn -0.43917 -0.518694 0.733544
vn -0.181134 0.418023 0.890195
vn 0 0.571522 0.820587
vn 0.181134 0.418023 0.890195
vn -0.715401 0.563562 0.413037
vn -0.415683 0.877275 0.239994
vn 0 0.571522 0.820587
vn 0.415683 0.877275 0.239994
vn 0 0.571522 0.820587
vn -0.415683 0.877275 0.239994
vn -0.854853 -0.518694 0.0135603
vn -0.940412 0.196321 -0.27764
vn -0.854853 0.160113 0.493549
vn 0.715401 0.563562 0.413037
vn 0.181134 0.418023 0.890195
vn 0 0.571522 0.820587
vn 0.43917 -0.518694 0.733544
vn 0.229763 0.196321 0.95324
vn 0.854853 0.160113 0.493549
vn 0.640416 0.449766 -0.622558
vn 0.710649 0.196321 -0.675601
vn 0.856393 0.167331 -0.488459
vn 0.715401 -0.577269 -0.393652
vn 0.856393 0.167331 -0.488459
vn 0.710649 0.196321 -0.675601
vn 0.854853 0.160113 0.493549
vn 0.940412 0.196321 -0.27764
vn 0.854853 -0.518694 0.0135603
vn 0.856392 0.404746 -0.320581
vn 0.710649 0.571522 -0.410293
vn 0.641156 0.438811 -0.629575
vn 0.715401 0.563562 0.413037
vn 0.415683 0.877275 0.239994
vn 0.710649 0.571522 -0.410293
vn -2.17135e-17 0.877275 -0.479989
vn 0.710649 0.571522 -0.410293
vn 0.415683 0.877275 0.239994
vn -0.715401 0.563562 0.413037
vn -0.695748 0.595466 0.40169
vn -0.860608 0.447298 -0.243471
vn 0.710649 0.196321 -0.675601
vn 0.640416 0.449766 -0.622558
vn 1.22435e-16 0.590976 -0.806689
vn 0.415683 -0.518694 -0.747104
vn 0.710649 0.196321 -0.675601
vn 2.17135e-17 0.160113 -0.987099
vn -0.640416 0.449766 -0.622558
vn -0.858654 0.146234 -0.491253
vn -0.710649 0.196321 -0.675601
vn -0.710649 0.196321 -0.675601
vn -0.858654 0.146234 -0.491253
vn -0.681456 -0.630652 -0.371343
vn 2.17135e-17 0.160113 -0.987099
vn -0.710649 0.196321 -0.675601
vn -0.415683 -0.518694 -0.747104
vn -0.641156 0.438811 -0.629575
vn -0.710649 0.571522 -0.410293
vn -0.861498 0.418023 -0.288231
vn 1.22435e-16 0.590976 -0.806689
vn -0.640416 0.449766 -0.622558
vn -0.710649 0.196321 -0.675601
vn 0.00519745 -0.966556 0.256402
vn 0.128726 -0.989262 -0.0692079
vn -0.219452 -0.966556 -0.132702
vn 0.00519745 -0.966556 0.256402
vn -0.0167876 -0.577269 0.816382
vn -0.00622975 -0.978625 0.205558
vn 0.262976 -0.951607 -0.159021
vn 0.715401 -0.577269 -0.393652
vn 0.128726 -0.989262 -0.0692079
vn -0.72932 -0.521241 -0.443169
vn -0.229763 -0.964164 0.132654
vn -0.219452 -0.966556 -0.132702
vn -0.262976 0.467129 0.844177
vn -0.715401 0.563562 0.413037
vn -0.181134 0.418023 0.890195
vn 0.715401 0.563562 0.413037
vn 0.219452 0.447298 0.867044
vn 0.181134 0.418023 0.890195
vn 0.0223636 -0.577206 0.816292
vn -0.229763 0.196321 0.95324
vn 0.00388948 0.146234 0.989242
vn 0.00388948 0.146234 0.989242
vn 0.181134 0.418023 0.890195
vn 0.219452 0.447298 0.867044
vn 0.862566 0.467129 -0.194345
vn 0.715401 0.563562 0.413037
vn 0.856392 0.404746 -0.320581
vn 0.641156 0.438811 -0.629575
vn 1.22435e-16 0.590976 -0.806689
vn 0.640416 0.449766 -0.622558
vn 0.715401 -0.577269 -0.393652
vn 0.860608 0.0804471 -0.502874
vn 0.856393 0.167331 -0.488459
vn 0.856392 0.404746 -0.320581
vn 0.856393 0.167331 -0.488459
vn 0.860608 0.0804471 -0.502874
vn 1.22435e-16 0.590976 -0.806689
vn -0.641156 0.438811 -0.629575
vn -0.640416 0.449766 -0.622558
vn -0.695748 0.595466 0.40169
vn -0.940412 0.196321 -0.27764
vn -0.860608 0.447298 -0.243471
vn -0.72932 -0.521241 -0.443169
vn -0.858654 0.146234 -0.491253
vn -0.859359 0.0794987 -0.505156
vn -0.858654 0.146234 -0.491253
vn -0.861498 0.418023 -0.288231
vn -0.860608 0.447298 -0.243471
vn 0.0223636 -0.577206 0.816292
vn -0.229763 -0.964164 0.132654
vn -0.43917 -0.518694 0.733544
vn 0.715401 -0.577269 -0.393652
vn 1.01207e-17 -0.964164 -0.265307
vn 0.128726 -0.989262 -0.0692079
vn 1.01207e-17 -0.964164 -0.265307
vn -0.681456 -0.630652 -0.371343
vn -0.226741 -0.966296 -0.121904
vn -0.695748 0.595466 0.40169
vn -0.229763 0.196321 0.95324
vn -0.854853 0.160113 0.493549
vn 0.695748 0.595466 0.40169
vn 0.229763 0.196321 0.95324
vn 0.219452 0.447298 0.867044
vn 0.229763 0.196321 0.95324
vn -0.0167876 -0.577269 0.816382
vn -0.00779834 0.0794986 0.996804
vn 0.695748 0.595466 0.40169
vn 0.940412 0.196321 -0.27764
vn 0.854853 0.160113 0.493549
vn 1.01939e-17 0.558946 -0.829204
vn 0.710649 0.571522 -0.410293
vn -2.17135e-17 0.877275 -0.479989
vn 0.940412 0.196321 -0.27764
vn 0.695748 -0.577206 -0.427514
vn 0.854853 -0.518694 0.0135603
vn 1.01939e-17 0.558946 -0.829204
vn -0.710649 0.571522 -0.410293
vn -0.641156 0.438811 -0.629575
vn -0.710649 0.571522 -0.410293
vn -0.715401 0.563562 0.413037
vn -0.861498 0.418023 -0.288231
vn -0.72932 -0.521241 -0.443169
vn -0.940412 0.196321 -0.27764
vn -0.854853 -0.518694 0.0135603
vn -0.681456 -0.630652 -0.371343
vn -0.219452 -0.966556 -0.132702
vn -0.226741 -0.966296 -0.121904
vn -0.43917 -0.518694 0.733544
vn -0.854853 -0.518694 0.0135603
vn -0.816497 -0.333333 0.471405
vn 0.229763 -0.964164 0.132654
vn -0.0167876 -0.577269 0.816382
vn 0.43917 -0.518694 0.733544
vn 0.854853 -0.518694 0.0135603
vn 0.43917 -0.518694 0.733544
vn 0.816497 -0.333333 0.471405
vn -0.415683 0.877275 0.239994
vn -2.17135e-17 0.877275 -0.479989
vn 0 1 5.89785e-17
vn 0.695748 -0.577206 -0.427514
vn 0.229763 -0.964164 0.132654
vn 0.854853 -0.518694 0.0135603
vn -0.415683 -0.518694 -0.747104
vn 0.415683 -0.518694 -0.747104
vn 0 -0.333333 -0.942809
vn -0.0167876 -0.577269 0.816382
vn 0.00388948 0.146234 0.989242
vn -0.00779834 0.0794986 0.996804
vn -0.854853 0.160113 0.493549
vn -0.43917 -0.518694 0.733544
vn -0.816497 -0.333333 0.471405
vn -0.715401 0.563562 0.413037
vn 0 0.571522 0.820587
vn -0.181134 0.418023 0.890195
vn 0.415683 0.877275 0.239994
vn -0.415683 0.877275 0.239994
vn 0 1 5.89785e-17
vn -0.854853 -0.518694 0.0135603
vn -0.854853 0.160113 0.493549
vn -0.816497 -0.333333 0.471405
vn 0.715401 0.563562 0.413037
vn 0 0.571522 0.820587
vn 0.415683 0.877275 0.239994
vn 0.43917 -0.518694 0.733544
vn 0.854853 0.160113 0.493549
vn 0.816497 -0.333333 0.471405
vn 0.715401 -0.577269 -0.393652
vn 0.710649 0.196321 -0.675601
vn 0.415683 -0.518694 -0.747104
vn 0.854853 0.160113 0.493549
vn 0.854853 -0.518694 0.0135603
vn 0.816497 -0.333333 0.471405
vn 0.715401 0.563562 0.413037
vn 0.710649 0.571522 -0.410293
vn 0.856392 0.404746 -0.320581
vn -2.17135e-17 0.877275 -0.479989
vn 0.415683 0.877275 0.239994
vn 0 1 5.89785e-17
vn -0.715401 0.563562 0.413037
vn -0.860608 0.447298 -0.243471
vn -0.861498 0.418023 -0.288231
vn 0.710649 0.196321 -0.675601
vn 1.22435e-16 0.590976 -0.806689
vn 2.17135e-17 0.160113 -0.987099
vn 0.415683 -0.518694 -0.747104
vn 2.17135e-17 0.160113 -0.987099
vn 0 -0.333333 -0.942809
vn -0.710649 0.196321 -0.675601
vn -0.681456 -0.630652 -0.371343
vn -0.415683 -0.518694 -0.747104
vn 2.17135e-17 0.160113 -0.987099
vn -0.415683 -0.518694 -0.747104
vn 0 -0.333333 -0.942809
vn 1.22435e-16 0.590976 -0.806689
vn -0.710649 0.196321 -0.675601
vn 2.17135e-17 0.160113 -0.987099
# 372 vertex normals

f 31//3 29//2 30//1
f 39//6 35//5 36//4
f 45//9 41//8 42//7
f 51//12 47//11 48//10
f 9//15 7//14 30//13
f 12//18 10//17 32//16
f 55//21 53//20 6//19
f 32//24 58//23 29//22
f 31//27 32//26 29//25
f 34//30 61//29 31//28
f 17//33 15//32 36//31
f 37//36 20//35 18//34
f 63//39 54//38 7//37
f 38//42 35//41 39//40
f 40//45 26//44 37//43
f 39//48 40//47 37//46
f 18//51 20//50 42//49
f 25//54 23//53 44//52
f 45//57 10//56 12//55
f 46//60 43//59 44//58
f 46//63 44//62 41//61
f 27//66 45//65 42//64
f 47//69 23//68 25//67
f 19//72 62//71 15//70
f 51//75 13//74 6//73
f 50//78 47//77 51//76
f 52//81 19//80 49//79
f 51//84 52//83 49//82
f 55//87 30//86 7//85
f 61//90 59//89 12//88
f 13//93 60//92 61//91
f 63//96 36//95 15//94
f 26//99 11//98 20//97
f 9//102 56//101 26//100
f 27//105 42//104 20//103
f 21//108 44//107 23//106
f 10//111 45//110 27//109
f 16//114 28//113 23//112
f 17//117 64//116 16//115
f 19//120 52//119 6//118
f 33//123 34//122 31//121
f 33//126 6//125 13//124
f 53//129 55//128 54//127
f 55//132 33//131 30//130
f 9//135 29//134 58//133
f 56//138 58//137 57//136
f 28//141 16//140 64//139
f 58//144 32//143 10//142
f 59//147 61//146 60//145
f 63//150 39//149 36//148
f 39//153 7//152 9//151
f 54//156 63//155 62//154
f 38//159 8//158 35//157
f 8//162 64//161 17//160
f 64//165 8//164 5//163
f 62//168 19//167 53//166
f 8//171 38//170 18//169
f 11//174 26//173 56//172
f 46//177 22//176 43//175
f 22//180 46//179 12//178
f 57//183 27//182 11//181
f 44//186 21//185 41//184
f 21//189 5//188 18//187
f 5//192 21//191 28//190
f 49//195 15//194 17//193
f 25//198 43//197 22//196
f 24//201 22//200 59//199
f 14//204 51//203 48//202
f 13//207 51//206 14//205
f 60//210 14//209 24//208
f 50//213 16//212 47//211
f 14//216 48//215 25//214
f 33//219 31//218 30//217
f 29//222 9//221 30//220
f 31//225 12//224 32//223
f 33//228 55//227 6//226
f 35//231 17//230 36//229
f 38//234 37//233 18//232
f 39//237 63//236 7//235
f 37//240 38//239 39//238
f 41//243 18//242 42//241
f 43//246 25//245 44//244
f 46//249 45//248 12//247
f 45//252 46//251 41//250
f 48//255 47//254 25//253
f 49//258 19//257 15//256
f 52//261 51//260 6//259
f 49//264 50//263 51//262
f 54//267 55//266 7//265
f 31//270 61//269 12//268
f 34//273 13//272 61//271
f 62//276 63//275 15//274
f 37//279 26//278 20//277
f 40//282 9//281 26//280
f 11//285 27//284 20//283
f 28//288 21//287 23//286
f 57//291 10//290 27//289
f 47//294 16//293 23//292
f 50//297 17//296 16//295
f 53//300 19//299 6//298
f 34//303 33//302 13//301
f 1//306 53//305 54//304
f 56//309 9//308 58//307
f 2//312 56//311 57//310
f 4//315 28//314 64//313
f 57//318 58//317 10//316
f 3//321 59//320 60//319
f 40//324 39//323 9//322
f 1//327 54//326 62//325
f 35//330 8//329 17//328
f 4//333 64//332 5//331
f 1//336 62//335 53//334
f 5//339 8//338 18//337
f 2//342 11//341 56//340
f 59//345 22//344 12//343
f 2//348 57//347 11//346
f 41//351 21//350 18//349
f 4//354 5//353 28//352
f 50//357 49//356 17//355
f 24//360 25//359 22//358
f 3//363 24//362 59//361
f 60//366 13//365 14//364
f 3//369 60//368 24//367
f 24//372 14//371 25//370
# 124 facets

